# xmcd CD database file
#
# Track frame offsets:
#	150
#	15385
#	28157
#	42943
#	59072
#	74316
#	85946
#	100884
#	115046
#	128919
#	156073
#	168592
#	182064
#	194503
#	209070
#	233026
#	259488
#	273808
#
# Disc length: 3836 seconds
#
# Revision: 2
# Processed by: cddbd v1.5.2PL0 Copyright (c) Steve Scherf et al.
# Submitted via: CDex 1.81
#
DISCID=050efa12
DTITLE=Various Artist - Jazz The Best Of Best [Disc 1]
DYEAR=2010
DGENRE=Jazz
TTITLE0=Doctor Jazz/Jelly Roll Morton's Red Hot Peppers
TTITLE1=Miss Annabelle Lee/Stephane Grapelli And Django Reinhardt
TTITLE2=Laster Leaps In/Lester Young
TTITLE3=In The Mood/Glenn Miller
TTITLE4=Tiger Rag/Benny Goodman and His Orchestra
TTITLE5=After You've Gone/Coleman Hawkins With The Ramblers
TTITLE6=Sugar Foot Stomp/Fletcher Henderson
TTITLE7=Jumpin' At The Woodside/Count Basie
TTITLE8=These Foolish Things/Benny Carter
TTITLE9=Air Mail Special/Louis Armstrong And Lionel Hampton
TTITLE10=Take The A Train/Duke ellington And His Famous Orchestra
TTITLE11=One O'Clock Jump/Harry James
TTITLE12=Dinah/Lionel Hampton
TTITLE13=All Of Me/Jimmy Dorsey With Helen O'connell
TTITLE14=Stop Look And Listen/Tommy Dorsey
TTITLE15=Upon Teddy's Hill/Charlie Cheristian
TTITLE16=Strange Fruit/Billie Horiday
TTITLE17=Sweet Lorraine/Artie Shaw
EXTD=YEAR: 2010
EXTT0=
EXTT1=
EXTT2=
EXTT3=
EXTT4=
EXTT5=
EXTT6=
EXTT7=
EXTT8=
EXTT9=
EXTT10=
EXTT11=
EXTT12=
EXTT13=
EXTT14=
EXTT15=
EXTT16=
EXTT17=
PLAYORDER=
